
<svg width="240" height="40" viewBox="0 0 240 40" fill="none" xmlns="http://www.w3.org/2000/svg">
<path d="M20.0004 2.59998L24.7764 16.044H37.6004L27.1364 23.94L30.8784 37.796L20.0004 29.488L9.12444 37.796L12.8644 23.94L2.39844 16.044H15.2224L20.0004 2.59998Z" fill="#1D1D1F"/>
<path d="M70.0004 2.59998L74.7764 16.044H87.6004L77.1364 23.94L80.8784 37.796L70.0004 29.488L59.1244 37.796L62.8644 23.94L52.3984 16.044H65.2224L70.0004 2.59998Z" fill="#1D1D1F"/>
<path d="M120 2.59998L124.776 16.044H137.6L127.136 23.94L130.878 37.796L120 29.488L109.124 37.796L112.864 23.94L102.398 16.044H115.222L120 2.59998Z" fill="#1D1D1F"/>
<path d="M170 2.59998L174.776 16.044H187.6L177.136 23.94L180.878 37.796L170 29.488L159.124 37.796L162.864 23.94L152.398 16.044H165.222L170 2.59998Z" fill="#1D1D1F"/>
<path d="M220 2.59998L224.776 16.044H237.6L227.136 23.94L230.878 37.796L220 29.488L209.124 37.796L212.864 23.94L202.398 16.044H215.222L220 2.59998Z" fill="#1D1D1F"/>
</svg>
